# Blender v2.79 (sub 0) OBJ File: ''
# www.blender.org
mtllib sphere.mtl
o Sphere
v 0.000000 0.975807 -0.975807
v 0.000000 0.528103 -1.274954
v 0.000000 -0.528103 -1.274954
v 0.264051 1.274954 -0.457351
v 0.487904 0.975807 -0.845074
v 0.637477 0.528103 -1.104142
v 0.690000 -0.000000 -1.195115
v 0.637477 -0.528103 -1.104142
v 0.487904 -0.975807 -0.845074
v 0.264052 -1.274954 -0.457351
v -0.000000 1.380000 -0.000000
v 0.457351 1.274954 -0.264052
v 0.845074 0.975807 -0.487904
v 1.104142 0.528103 -0.637477
v 1.195115 -0.000000 -0.690000
v 1.104142 -0.528103 -0.637477
v 0.845074 -0.975807 -0.487904
v 0.457351 -1.274954 -0.264052
v 0.528103 1.274954 -0.000000
v 0.975807 0.975807 -0.000000
v 1.274953 0.528103 -0.000000
v 1.380000 -0.000000 -0.000000
v 1.274953 -0.528103 -0.000000
v 0.975807 -0.975807 -0.000000
v 0.528103 -1.274954 -0.000000
v 0.457351 1.274954 0.264051
v 0.845074 0.975807 0.487903
v 1.104142 0.528103 0.637477
v 1.195115 -0.000000 0.690000
v 1.104142 -0.528103 0.637477
v 0.845074 -0.975807 0.487903
v 0.457351 -1.274954 0.264051
v 0.264051 1.274954 0.457350
v 0.487903 0.975807 0.845073
v 0.637477 0.528103 1.104142
v 0.690000 -0.000000 1.195115
v 0.637477 -0.528103 1.104142
v 0.487903 -0.975807 0.845073
v 0.264052 -1.274954 0.457350
v 0.000000 -1.380000 -0.000000
v 0.000000 1.274954 0.528103
v -0.000000 0.975807 0.975807
v -0.000000 0.528103 1.274953
v -0.000000 -0.000000 1.380000
v -0.000000 -0.528103 1.274953
v -0.000000 -0.975807 0.975807
v 0.000000 -1.274954 0.528103
v -0.264051 1.274954 0.457350
v -0.487904 0.975807 0.845073
v -0.637477 0.528103 1.104142
v -0.690000 -0.000000 1.195115
v -0.637477 -0.528103 1.104142
v -0.487904 -0.975807 0.845073
v -0.264051 -1.274954 0.457350
v -0.457351 1.274954 0.264051
v -0.845074 0.975807 0.487903
v -1.104142 0.528103 0.637477
v -1.195115 -0.000000 0.690000
v -1.104142 -0.528103 0.637477
v -0.845074 -0.975807 0.487903
v -0.457351 -1.274954 0.264051
v -0.528103 1.274954 -0.000000
v -0.975807 0.975807 -0.000000
v -1.274954 0.528103 -0.000000
v -1.380000 -0.000000 -0.000000
v -1.274954 -0.528103 -0.000000
v -0.975807 -0.975807 -0.000000
v -0.528103 -1.274954 -0.000000
v -0.457351 1.274954 -0.264052
v -0.845074 0.975807 -0.487904
v -1.104142 0.528103 -0.637477
v -1.195115 -0.000000 -0.690000
v -1.104142 -0.528103 -0.637477
v -0.845074 -0.975807 -0.487904
v -0.457351 -1.274954 -0.264052
v -0.264051 1.274954 -0.457351
v -0.487903 0.975807 -0.845074
v -0.637477 0.528103 -1.104142
v -0.690000 -0.000000 -1.195115
v -0.637477 -0.528103 -1.104142
v -0.487903 -0.975807 -0.845074
v -0.264051 -1.274954 -0.457351
v 0.000000 1.274954 -0.528103
v -0.000000 -0.000000 -1.380000
v 0.000000 -0.975807 -0.975807
v 0.000000 -1.274954 -0.528103
vt 0.147267 0.265241
vt 0.172198 0.172198
vt 0.197129 0.265241
vt 0.516593 0.172198
vt 0.491662 0.265241
vt 0.541524 0.265241
vt 0.712774 0.546066
vt 0.631113 0.546066
vt 0.631113 0.662341
vt 0.712774 0.635059
vt 0.534788 0.546066
vt 0.438462 0.546066
vt 0.438462 0.662341
vt 0.534788 0.671922
vt 0.126132 0.344119
vt 0.218264 0.344119
vt 0.470527 0.344119
vt 0.562660 0.344119
vt 0.356801 0.546066
vt 0.356801 0.635059
vt 0.800366 0.190155
vt 0.807345 0.092660
vt 0.892046 0.084236
vt 0.892046 0.181037
vt 0.240310 0.240310
vt 0.298053 0.298053
vt 0.642449 0.298053
vt 0.584706 0.240310
vt 0.826411 0.284365
vt 0.911113 0.275941
vt 0.846285 0.006724
vt 0.911113 0.000276
vt 0.712774 0.952470
vt 0.631113 0.999724
vt 0.631113 0.914604
vt 0.712774 0.887322
vt 0.688515 0.218264
vt 0.609636 0.197129
vt 0.534788 0.924185
vt 0.534788 0.798329
vt 0.631113 0.798329
vt 0.438462 0.914604
vt 0.356801 0.887322
vt 0.356801 0.798329
vt 0.438462 0.798329
vt 0.265241 0.197129
vt 0.712774 0.798329
vt 0.344119 0.218264
vt 0.356801 0.709336
vt 0.438462 0.682054
vt 0.265241 0.147267
vt 0.609636 0.147267
vt 0.631113 0.682054
vt 0.712774 0.709336
vt 0.534788 0.672474
vt 0.344119 0.126131
vt 0.688515 0.126131
vt 0.584706 0.104085
vt 0.356249 0.624668
vt 0.274588 0.671922
vt 0.274588 0.586802
vt 0.356249 0.559520
vt 0.713326 0.819192
vt 0.720305 0.721698
vt 0.805007 0.713274
vt 0.805007 0.810074
vt 0.240310 0.104085
vt 0.298053 0.046342
vt 0.642448 0.046342
vt 0.739371 0.913403
vt 0.824073 0.904979
vt 0.759245 0.635761
vt 0.824073 0.629314
vt 0.197129 0.079154
vt 0.218264 0.000276
vt 0.562659 0.000276
vt 0.541524 0.079154
vt 0.178263 0.596382
vt 0.178263 0.470527
vt 0.274588 0.470527
vt 0.081937 0.586802
vt 0.000276 0.559520
vt 0.000276 0.470527
vt 0.081937 0.470527
vt 0.356249 0.470527
vt 0.470527 0.000276
vt 0.491662 0.079155
vt 0.178263 0.344672
vt 0.274588 0.354252
vt 0.000276 0.381534
vt 0.081937 0.354252
vt 0.147267 0.079155
vt 0.356249 0.381534
vt 0.126131 0.000276
vt 0.104085 0.104085
vt 0.448481 0.104085
vt 0.356249 0.719728
vt 0.274588 0.672474
vt 0.274588 0.757593
vt 0.356249 0.784875
vt 0.689067 0.094487
vt 0.696046 0.191981
vt 0.780748 0.200406
vt 0.780748 0.103605
vt 0.046342 0.046343
vt 0.390738 0.046343
vt 0.715112 0.000276
vt 0.799814 0.008700
vt 0.734986 0.277918
vt 0.799814 0.284365
vt 0.274588 0.873869
vt 0.356249 0.873869
vt 0.178263 0.748013
vt 0.081937 0.757593
vt 0.081937 0.873869
vt 0.178263 0.873868
vt 0.079155 0.147267
vt 0.000276 0.126132
vt 0.344672 0.126132
vt 0.423550 0.147267
vt 0.000276 0.784875
vt 0.000276 0.873869
vt 0.344672 0.218264
vt 0.423550 0.197129
vt 0.178263 0.999724
vt 0.274588 0.990144
vt 0.000276 0.962862
vt 0.081937 0.990144
vt 0.079155 0.197129
vt 0.356249 0.962862
vt 0.000276 0.218264
vt 0.739371 0.344672
vt 0.713326 0.438882
vt 0.805007 0.448000
vt 0.824073 0.353096
vt 0.720305 0.536377
vt 0.759245 0.622313
vt 0.824073 0.628761
vt 0.805007 0.544801
vt 0.104085 0.240310
vt 0.448481 0.240310
vt 0.712774 0.391926
vt 0.631113 0.344672
vt 0.631113 0.429791
vt 0.712774 0.457073
vt 0.046343 0.298053
vt 0.390738 0.298053
vt 0.534788 0.420211
vt 0.438462 0.429791
vt 0.356801 0.457073
vn 0.0522 0.9794 -0.1948
vn 0.0522 -0.9794 -0.1948
vn 0.2175 -0.5423 -0.8116
vn 0.2542 0.1887 -0.9486
vn 0.1472 0.8224 -0.5495
vn 0.1472 -0.8224 -0.5495
vn 0.2542 -0.1887 -0.9486
vn 0.2175 0.5423 -0.8116
vn 0.6944 0.1887 -0.6944
vn 0.4023 0.8224 -0.4023
vn 0.4023 -0.8224 -0.4023
vn 0.6944 -0.1887 -0.6944
vn 0.5941 0.5423 -0.5941
vn 0.1426 0.9794 -0.1426
vn 0.1426 -0.9794 -0.1426
vn 0.5941 -0.5423 -0.5941
vn 0.5495 -0.8224 -0.1472
vn 0.9486 -0.1887 -0.2542
vn 0.8116 0.5423 -0.2175
vn 0.1948 0.9794 -0.0522
vn 0.1948 -0.9794 -0.0522
vn 0.8116 -0.5423 -0.2175
vn 0.9486 0.1887 -0.2542
vn 0.5495 0.8224 -0.1472
vn 0.8116 0.5423 0.2175
vn 0.1948 0.9794 0.0522
vn 0.1948 -0.9794 0.0522
vn 0.8116 -0.5423 0.2175
vn 0.9486 0.1887 0.2542
vn 0.5495 0.8224 0.1472
vn 0.5495 -0.8224 0.1472
vn 0.9486 -0.1887 0.2542
vn 0.1426 -0.9794 0.1426
vn 0.5941 -0.5423 0.5941
vn 0.6944 0.1887 0.6944
vn 0.4023 0.8224 0.4023
vn 0.4023 -0.8224 0.4023
vn 0.6944 -0.1887 0.6944
vn 0.5941 0.5423 0.5941
vn 0.1426 0.9794 0.1426
vn 0.1472 0.8224 0.5495
vn 0.1472 -0.8224 0.5495
vn 0.2542 -0.1887 0.9486
vn 0.2175 0.5423 0.8116
vn 0.0522 0.9794 0.1948
vn 0.0522 -0.9794 0.1948
vn 0.2175 -0.5423 0.8116
vn 0.2542 0.1887 0.9486
vn -0.1472 -0.8224 0.5495
vn -0.2542 -0.1887 0.9486
vn -0.2175 0.5423 0.8116
vn -0.0522 0.9794 0.1948
vn -0.0522 -0.9794 0.1948
vn -0.2175 -0.5423 0.8116
vn -0.2542 0.1887 0.9486
vn -0.1472 0.8224 0.5495
vn -0.1426 0.9794 0.1426
vn -0.1426 -0.9794 0.1426
vn -0.5941 -0.5423 0.5941
vn -0.6944 0.1887 0.6944
vn -0.4023 0.8224 0.4023
vn -0.4023 -0.8224 0.4023
vn -0.6944 -0.1887 0.6944
vn -0.5941 0.5423 0.5941
vn -0.8116 -0.5423 0.2175
vn -0.9486 0.1887 0.2542
vn -0.5495 0.8224 0.1472
vn -0.5495 -0.8224 0.1472
vn -0.9486 -0.1887 0.2542
vn -0.8116 0.5423 0.2175
vn -0.1948 0.9794 0.0522
vn -0.1948 -0.9794 0.0522
vn -0.5495 -0.8224 -0.1472
vn -0.9486 -0.1887 -0.2542
vn -0.8116 0.5423 -0.2175
vn -0.1948 0.9794 -0.0522
vn -0.1948 -0.9794 -0.0522
vn -0.8116 -0.5423 -0.2175
vn -0.9486 0.1887 -0.2542
vn -0.5495 0.8224 -0.1472
vn -0.6944 -0.1887 -0.6944
vn -0.5941 0.5423 -0.5941
vn -0.1426 0.9794 -0.1426
vn -0.1426 -0.9794 -0.1426
vn -0.5941 -0.5423 -0.5941
vn -0.6944 0.1887 -0.6944
vn -0.4023 0.8224 -0.4023
vn -0.4023 -0.8224 -0.4023
vn -0.0522 -0.9794 -0.1948
vn -0.2175 -0.5423 -0.8116
vn -0.2542 0.1887 -0.9486
vn -0.1472 0.8224 -0.5495
vn -0.1472 -0.8224 -0.5495
vn -0.2542 -0.1887 -0.9486
vn -0.2175 0.5423 -0.8116
vn -0.0522 0.9794 -0.1948
usemtl Material.001
s off
f 83/1/1 11/2/1 4/3/1
f 40/4/2 86/5/2 10/6/2
f 85/7/3 3/8/3 8/9/3 9/10/3
f 84/11/4 2/12/4 6/13/4 7/14/4
f 1/15/5 83/1/5 4/3/5 5/16/5
f 86/5/6 85/17/6 9/18/6 10/6/6
f 3/8/7 84/11/7 7/14/7 8/9/7
f 2/12/8 1/19/8 5/20/8 6/13/8
f 7/21/9 6/22/9 14/23/9 15/24/9
f 5/16/10 4/3/10 12/25/10 13/26/10
f 10/6/11 9/18/11 17/27/11 18/28/11
f 8/29/12 7/21/12 15/24/12 16/30/12
f 6/22/13 5/31/13 13/32/13 14/23/13
f 4/3/14 11/2/14 12/25/14
f 40/4/15 10/6/15 18/28/15
f 9/33/16 8/34/16 16/35/16 17/36/16
f 18/28/17 17/27/17 24/37/17 25/38/17
f 16/35/18 15/39/18 22/40/18 23/41/18
f 14/42/19 13/43/19 20/44/19 21/45/19
f 12/25/20 11/2/20 19/46/20
f 40/4/21 18/28/21 25/38/21
f 17/36/22 16/35/22 23/41/22 24/47/22
f 15/39/23 14/42/23 21/45/23 22/40/23
f 13/26/24 12/25/24 19/46/24 20/48/24
f 21/45/25 20/44/25 27/49/25 28/50/25
f 19/46/26 11/2/26 26/51/26
f 40/4/27 25/38/27 32/52/27
f 24/47/28 23/41/28 30/53/28 31/54/28
f 22/40/29 21/45/29 28/50/29 29/55/29
f 20/48/30 19/46/30 26/51/30 27/56/30
f 25/38/31 24/37/31 31/57/31 32/52/31
f 23/41/32 22/40/32 29/55/32 30/53/32
f 40/4/33 32/52/33 39/58/33
f 31/59/34 30/60/34 37/61/34 38/62/34
f 29/63/35 28/64/35 35/65/35 36/66/35
f 27/56/36 26/51/36 33/67/36 34/68/36
f 32/52/37 31/57/37 38/69/37 39/58/37
f 30/70/38 29/63/38 36/66/38 37/71/38
f 28/64/39 27/72/39 34/73/39 35/65/39
f 26/51/40 11/2/40 33/67/40
f 34/68/41 33/67/41 41/74/41 42/75/41
f 39/58/42 38/69/42 46/76/42 47/77/42
f 37/61/43 36/78/43 44/79/43 45/80/43
f 35/81/44 34/82/44 42/83/44 43/84/44
f 33/67/45 11/2/45 41/74/45
f 40/4/46 39/58/46 47/77/46
f 38/62/47 37/61/47 45/80/47 46/85/47
f 36/78/48 35/81/48 43/84/48 44/79/48
f 47/77/49 46/76/49 53/86/49 54/87/49
f 45/80/50 44/79/50 51/88/50 52/89/50
f 43/84/51 42/83/51 49/90/51 50/91/51
f 41/74/52 11/2/52 48/92/52
f 40/4/53 47/77/53 54/87/53
f 46/85/54 45/80/54 52/89/54 53/93/54
f 44/79/55 43/84/55 50/91/55 51/88/55
f 42/75/56 41/74/56 48/92/56 49/94/56
f 48/92/57 11/2/57 55/95/57
f 40/4/58 54/87/58 61/96/58
f 53/97/59 52/98/59 59/99/59 60/100/59
f 51/101/60 50/102/60 57/103/60 58/104/60
f 49/94/61 48/92/61 55/95/61 56/105/61
f 54/87/62 53/86/62 60/106/62 61/96/62
f 52/107/63 51/101/63 58/104/63 59/108/63
f 50/102/64 49/109/64 56/110/64 57/103/64
f 60/100/65 59/99/65 66/111/65 67/112/65
f 58/113/66 57/114/66 64/115/66 65/116/66
f 56/105/67 55/95/67 62/117/67 63/118/67
f 61/96/68 60/106/68 67/119/68 68/120/68
f 59/99/69 58/113/69 65/116/69 66/111/69
f 57/114/70 56/121/70 63/122/70 64/115/70
f 55/95/71 11/2/71 62/117/71
f 40/4/72 61/96/72 68/120/72
f 68/120/73 67/119/73 74/123/73 75/124/73
f 66/111/74 65/116/74 72/125/74 73/126/74
f 64/115/75 63/122/75 70/127/75 71/128/75
f 62/117/76 11/2/76 69/129/76
f 40/4/77 68/120/77 75/124/77
f 67/112/78 66/111/78 73/126/78 74/130/78
f 65/116/79 64/115/79 71/128/79 72/125/79
f 63/118/80 62/117/80 69/129/80 70/131/80
f 73/132/81 72/133/81 79/134/81 80/135/81
f 71/136/82 70/137/82 77/138/82 78/139/82
f 69/129/83 11/2/83 76/140/83
f 40/4/84 75/124/84 82/141/84
f 74/142/85 73/143/85 80/144/85 81/145/85
f 72/133/86 71/136/86 78/139/86 79/134/86
f 70/131/87 69/129/87 76/140/87 77/146/87
f 75/124/88 74/123/88 81/147/88 82/141/88
f 40/4/89 82/141/89 86/5/89
f 81/145/90 80/144/90 3/8/90 85/7/90
f 79/148/91 78/149/91 2/12/91 84/11/91
f 77/146/92 76/140/92 83/1/92 1/15/92
f 82/141/93 81/147/93 85/17/93 86/5/93
f 80/144/94 79/148/94 84/11/94 3/8/94
f 78/149/95 77/150/95 1/19/95 2/12/95
f 76/140/96 11/2/96 83/1/96
